<?xml version="1.0" encoding="UTF-8" standalone="no"?>
<svg width="18px" height="18px" viewBox="0 0 18 18" version="1.1" xmlns="http://www.w3.org/2000/svg" xmlns:xlink="http://www.w3.org/1999/xlink" xmlns:sketch="http://www.bohemiancoding.com/sketch/ns">
    <!-- Generator: Sketch 3.4.4 (17249) - http://www.bohemiancoding.com/sketch -->
    <title>bubble fill</title>
    <desc>Created with Sketch.</desc>
    <defs></defs>
    <g id="Page-1" stroke="none" stroke-width="1" fill="none" fill-rule="evenodd" sketch:type="MSPage">
        <g id="Icons" sketch:type="MSArtboardGroup" transform="translate(-120.000000, -32.000000)" fill="#757575">
            <path d="M128.999654,49.3506404 C124.023538,49.3506404 120,45.4994808 120,40.697127 C120,35.8947733 124.02423,32 128.999654,32 C133.975078,32 137.999308,35.894081 137.999308,40.697127 C137.999308,42.4278297 137.480097,44.0290758 136.571132,45.3700242 C136.527518,45.4136379 136.484597,45.5001731 136.440983,45.5430945 L136.440983,45.5430945 C136.354448,45.7161648 136.267913,45.9757702 136.267913,46.1924541 L137.219799,50 L133.585324,48.6583593 C133.412253,48.5718242 133.239183,48.5718242 133.066113,48.5718242 C132.893043,48.5718242 132.762894,48.6154379 132.589823,48.6583593 L132.589823,48.6583593 C132.54621,48.6583593 132.54621,48.701973 132.503288,48.701973 C131.421253,49.1346487 130.253375,49.3513326 128.998269,49.3513326 L128.999654,49.3506404 Z" id="bubble-fill" sketch:type="MSShapeGroup"></path>
        </g>
    </g>
</svg>