<?xml version="1.0" encoding="UTF-8" standalone="no"?>
<svg width="13px" height="19px" viewBox="0 0 13 19" version="1.1" xmlns="http://www.w3.org/2000/svg" xmlns:xlink="http://www.w3.org/1999/xlink" xmlns:sketch="http://www.bohemiancoding.com/sketch/ns">
    <!-- Generator: Sketch 3.4.4 (17249) - http://www.bohemiancoding.com/sketch -->
    <title>Shape</title>
    <desc>Created with Sketch.</desc>
    <defs></defs>
    <g id="Page-1" stroke="none" stroke-width="1" fill="none" fill-rule="evenodd" sketch:type="MSPage">
        <g id="Desktop-HD" sketch:type="MSArtboardGroup" transform="translate(-1039.000000, -393.000000)" fill="#757575">
            <g id="Article" sketch:type="MSLayerGroup" transform="translate(330.000000, 207.000000)">
                <g id="bookmark" transform="translate(709.000000, 182.000000)" sketch:type="MSShapeGroup">
                    <path d="M12.5,23 C12.357,23 12.217,22.938 12.12,22.825 L6.5,16.268 L0.88,22.825 C0.744,22.984 0.523,23.041 0.327,22.969 C0.131,22.897 0,22.709 0,22.5 L0,4.5 C0,4.224 0.224,4 0.5,4 L12.5,4 C12.776,4 13,4.224 13,4.5 L13,22.5 C13,22.709 12.87,22.896 12.673,22.969 C12.616,22.99 12.558,23 12.5,23 L12.5,23 Z M6.5,15 C6.646,15 6.785,15.064 6.88,15.175 L12,21.149 L12,5.001 L1,5.001 L1,21.149 L6.12,15.175 C6.215,15.064 6.354,15 6.5,15 L6.5,15 Z" id="Shape"></path>
                </g>
            </g>
        </g>
    </g>
</svg>